<svg width="26" height="24" viewBox="0 0 26 24" fill="none" xmlns="http://www.w3.org/2000/svg">
<path d="M25.3123 3.8853L13.3131 0.0451176C13.1095 -0.0150392 12.8917 -0.0150392 12.6881 0.0451176L0.701444 3.8853H0.676445L0.551454 3.94531H0.538954L0.413963 4.01731C0.413963 4.02931 0.401464 4.02931 0.388965 4.04131L0.288971 4.12531L0.201477 4.22132C0.201477 4.23332 0.188978 4.23332 0.188978 4.24532L0.113983 4.35333C0.113983 4.36533 0.113983 4.36533 0.101484 4.37733L0.0514872 4.48533L0.0139898 4.61734V4.65334C0.00166111 4.70037 -0.00256123 4.74901 0.00149059 4.79735V14.3978C0.00149059 14.6524 0.10684 14.8966 0.294364 15.0767C0.481888 15.2567 0.736225 15.3579 1.00142 15.3579C1.26662 15.3579 1.52096 15.2567 1.70848 15.0767C1.89601 14.8966 2.00136 14.6524 2.00136 14.3978V6.12941L6.20108 7.47348C5.41208 8.68601 4.99612 10.088 5.00116 11.5177C5.00162 12.8179 5.3459 14.0968 6.00175 15.2344C6.65759 16.3721 7.60353 17.3312 8.7509 18.022C6.36656 18.888 4.33102 20.4599 2.93879 22.5102C2.79689 22.7257 2.74881 22.986 2.80492 23.2352C2.86103 23.4843 3.01684 23.7023 3.23877 23.8423C3.34769 23.9116 3.46984 23.9594 3.59815 23.983C3.72646 24.0067 3.85838 24.0056 3.98626 23.9799C4.11415 23.9543 4.23546 23.9045 4.34315 23.8335C4.45085 23.7625 4.54281 23.6716 4.61368 23.5663C5.52128 22.224 6.76396 21.1209 8.22871 20.3571C9.69346 19.5934 11.3338 19.1934 13.0006 19.1934C14.6674 19.1934 16.3078 19.5934 17.7725 20.3571C19.2373 21.1209 20.48 22.224 21.3876 23.5663C21.4788 23.6993 21.6032 23.8085 21.7494 23.8839C21.8956 23.9593 22.059 23.9986 22.225 23.9983C22.4166 24.0002 22.6041 23.9458 22.7625 23.8423C22.9844 23.7023 23.1402 23.4843 23.1963 23.2352C23.2524 22.986 23.2044 22.7257 23.0624 22.5102C21.6702 20.4599 19.6347 18.888 17.2503 18.022C18.3977 17.3312 19.3436 16.3721 19.9995 15.2344C20.6553 14.0968 20.9996 12.8179 21.0001 11.5177C21.0051 10.088 20.5892 8.68601 19.8002 7.47348L25.3123 5.70939C25.5124 5.64626 25.6865 5.5241 25.81 5.36033C25.9335 5.19655 26 4.99953 26 4.79735C26 4.59516 25.9335 4.39814 25.81 4.23437C25.6865 4.0706 25.5124 3.94844 25.3123 3.8853ZM19.0002 11.5177C19.0002 13.0454 18.3681 14.5105 17.243 15.5908C16.1178 16.6711 14.5918 17.2779 13.0006 17.2779C11.4094 17.2779 9.88341 16.6711 8.75826 15.5908C7.63312 14.5105 7.00102 13.0454 7.00102 11.5177C7.00343 10.2885 7.41027 9.09147 8.16344 8.09751L12.6881 9.54958C12.8911 9.61368 13.1101 9.61368 13.3131 9.54958L17.8378 8.09751C18.591 9.09147 18.9978 10.2885 19.0002 11.5177ZM17.8378 6.08141H17.8253L13.0006 7.62948L8.17594 6.08141H8.16344L4.16371 4.79735L13.0006 1.96521L21.8375 4.79735L17.8378 6.08141Z" fill="#F2F2F2"/>
</svg>
